<?xml version="1.0" encoding="UTF-8"?>
<!-- Created with Inkscape (http://www.inkscape.org/) -->
<svg width="550.2" height="87.987" version="1.1" viewBox="0 0 550.2 87.987" xml:space="preserve" xmlns="http://www.w3.org/2000/svg"><defs><clipPath id="clipPath26"><path d="M 0,595.28 H 841.89 V 0 H 0 Z"/></clipPath></defs><g transform="matrix(1.3333 0 0 -1.3333 -196 396.71)"><g clip-path="url(#clipPath26)"><g transform="translate(377.68,265.71)"><path d="m0 0-3.56-6.25c-0.4-0.88-0.88-1.84-1.45-2.9-3.08-5.81-6.25-10.98-6.95-12.1l0.03-0.01-7.34-12.72h-15.85c-0.03 0.01-0.07 0.02-0.1 0.03-2.61 0.88-4.51 2.98-7.33 7.54-1.13 1.85-2.18 3.63-3.11 5.24h-0.01l-2.11 3.67 19.34 0.05 9.32 16.26 2.2 3.85-0.01 0.02c0.93 1.6 1.94 3.41 2.96 5.31 2.53 4.75 3.38 7.46 2.82 10.15l-7.25 13.39-0.16 0.29 0.17-0.29z" fill="#0694cc"/></g><g transform="translate(363.71,273.7)"><path d="m0 0c-1.02-1.9-2.03-3.71-2.96-5.31l0.01-0.02-2.2-3.85-9.79 16.9-18.57-0.02v0.01l-3.78-0.01h-0.71l-0.24-0.01v-0.02c-1.79 0.01-3.76-0.01-5.82-0.08l-0.27-0.01c-4.97-0.16-7.71-0.71-9.72-2.24l-0.26-0.44c-0.01-0.01-0.03-0.02-0.04-0.03l1.65 2.83s-0.01 0.04-0.05 0.12v0.02l9.07 15.7h39.25l7.25-13.39c0.56-2.69-0.29-5.4-2.82-10.15" fill="#003973"/></g><g transform="translate(342.56,231.73)"><path d="m0 0h-21.76l-3.76 6.5c-0.04 0.11-0.11 0.22-0.17 0.31 0 0.01-0.01 0.02-0.01 0.02-0.34 0.52-0.69 1.08-1.06 1.67-3.45 5.59-6.32 10.93-6.94 12.1l-0.02-0.03-7.31 12.85 7.87 13.45 0.26 0.44c2.01 1.53 4.75 2.08 9.72 2.24l0.27 0.01c2.06 0.07 4.03 0.09 5.82 0.08v0.02l0.24 0.01h0.71l3.78 0.01v-0.01l-9.74-16.76 9.44-16.43 2.11-3.67h0.01c0.93-1.61 1.98-3.39 3.11-5.24 2.82-4.56 4.72-6.66 7.33-7.54 0.03-0.01 0.07-0.02 0.1-0.03" fill="#2bb7e2"/></g><g transform="translate(179.96 296.5)"><path d="m0 0v-25.665h-19.334v25.665h-13.631v-64.961h13.631v25.665h19.334v-25.665h13.632v64.961z" fill="#003973"/></g><g transform="translate(215.05 258.68)"><path d="m0 0c1.48 3.58 4.43 5.6 8.48 5.6 3.81 0 6.53-1.94 7.93-5.6zm8.4 16.73c-12.6 0-22.25-9.49-22.25-21.94 0-12.52 9.65-21.93 22.56-21.93 9.02 0 16.56 4.59 19.83 12.21l-11.82 3.03c-1.87-2.56-4.75-3.96-8.09-3.96-4.59 0-8.01 2.8-9.18 7.31h30.49l0.16 3.65v0.08c-0.16 12.52-9.26 21.55-21.7 21.55" fill="#003973"/></g><g transform="translate(298.03 273.85)"><path d="m0 0h-16.1l-9.8-11.9-9.57 11.9h-16.25l17.81-21.16-17.81-21.15h16.33l9.57 11.82 9.56-11.82h16.26l-17.81 21.15z" fill="#003973"/></g><g transform="translate(401.24 263.12)"><path d="m0 0c4.74 0 8.09-2.8 9.56-4.28v14.31c-2.95 1.48-6.45 2.26-9.95 2.26-12.44 0-22.24-9.57-22.24-21.94 0-12.36 9.8-21.93 22.24-21.93 3.5 0 7 0.78 9.95 2.26v14.31c-1.47-1.4-4.74-4.2-9.56-4.2-5.91 0-9.8 4.12-9.8 9.56 0 5.53 3.97 9.65 9.8 9.65" fill="#0694cc"/></g><g transform="translate(430.48 258.68)"><path d="m0 0c1.48 3.58 4.43 5.6 8.48 5.6 3.81 0 6.53-1.94 7.93-5.6zm8.4 16.73c-12.6 0-22.25-9.49-22.25-21.94 0-12.52 9.65-21.93 22.56-21.93 9.02 0 16.56 4.59 19.83 12.21l-11.82 3.03c-1.87-2.56-4.74-3.96-8.09-3.96-4.59 0-8.01 2.8-9.18 7.31h30.49l0.16 3.65v0.08c-0.16 12.52-9.26 21.55-21.7 21.55" fill="#0694cc"/></g><g transform="translate(488.88 243.83)"><path d="m0 0c-5.36 0-9.64 4.28-9.64 9.72 0 5.45 4.2 9.65 9.64 9.65 5.37 0 9.57-4.28 9.57-9.65 0-5.44-4.2-9.72-9.57-9.72m9.26 30.8v-2.49c-3.04 2.25-6.85 3.42-11.2 3.42-11.51 0-20.92-9.88-20.92-22.01s9.33-22.01 20.92-22.01c4.59 0 8.63 1.32 11.82 3.81l0.15-3.03h12.45v42.31z" fill="#0694cc"/></g><g transform="translate(544.02 274.63)"><path d="m0 0c-3.19 0-6.3-0.94-8.94-3.43v2.65h-13.15v-42.31h13.15v25.66c0.07 3.12 2.49 5.45 5.83 5.45 3.19 0 5.52-2.26 5.52-5.45v-25.66h13.22v26.91c0 9.02-6.92 16.18-15.63 16.18" fill="#0694cc"/></g><g transform="translate(359.29,297.24)"><path d="m0 0h-0.01l-0.16 0.29z" fill="#003973"/></g></g></g></svg>
